<?xml version="1.0" standalone="no"?>
<!DOCTYPE svg PUBLIC "-//W3C//DTD SVG 20010904//EN"
 "http://www.w3.org/TR/2001/REC-SVG-20010904/DTD/svg10.dtd">
<svg version="1.0" xmlns="http://www.w3.org/2000/svg"
 width="500.000000pt" height="500.000000pt" viewBox="0 0 500.000000 500.000000"
 preserveAspectRatio="xMidYMid meet">
<metadata>
Created by potrace 1.16, written by Peter Selinger 2001-2019
</metadata>
<g transform="translate(0.000000,500.000000) scale(0.100000,-0.100000)"
fill="#e10a0a" stroke="none">
<path d="M3154 3945 c-130 -66 -195 -289 -210 -720 -3 -99 -1 -285 5 -414 10
-229 10 -236 -15 -379 -28 -167 -52 -278 -95 -446 -78 -305 -99 -241 -164 499
-14 154 -30 297 -36 317 -15 46 -44 74 -86 83 -28 5 -37 2 -61 -22 -39 -39
-56 -104 -97 -363 -41 -259 -89 -478 -109 -498 -12 -12 -16 -12 -24 5 -11 20
-53 277 -72 438 -8 71 -15 94 -31 107 -50 43 -80 15 -90 -85 -8 -82 -77 -425
-108 -537 -38 -135 -103 -251 -128 -227 -14 15 -54 241 -72 412 -11 103 -24
192 -28 196 -16 16 -58 20 -76 7 -37 -27 -49 -265 -22 -424 20 -117 59 -242
88 -285 46 -68 138 -70 196 -4 52 60 114 225 154 411 l23 107 18 -84 c34 -166
47 -200 80 -220 38 -23 104 -25 135 -3 13 9 30 32 38 51 15 37 64 293 107 563
15 91 32 176 38 190 10 24 11 24 18 5 5 -11 13 -137 19 -279 13 -296 30 -445
65 -565 30 -104 48 -123 118 -128 114 -9 150 50 205 335 21 105 40 192 43 192
3 0 13 -50 23 -112 28 -170 47 -200 119 -190 45 7 50 34 32 169 -17 126 -15
226 4 245 9 9 18 6 38 -13 31 -29 62 -89 139 -272 63 -150 119 -246 159 -272
41 -27 97 -30 149 -7 83 37 104 100 146 437 21 166 61 534 61 562 0 11 5 13
18 8 82 -34 146 -26 182 25 21 29 107 251 117 301 7 35 17 44 30 26 6 -6 27
-117 48 -245 35 -218 36 -235 23 -275 -8 -23 -54 -143 -102 -267 -109 -282
-130 -352 -130 -456 -1 -73 2 -85 29 -130 56 -90 131 -116 221 -75 112 51 158
135 175 322 14 154 5 439 -20 604 -10 68 -15 131 -11 145 13 41 147 357 201
472 53 113 58 141 22 146 -42 6 -60 -16 -113 -140 -62 -146 -126 -274 -139
-283 -18 -10 -29 27 -71 235 -22 112 -47 215 -56 228 -29 44 -84 48 -109 8 -7
-11 -36 -97 -65 -191 -51 -168 -104 -296 -126 -303 -18 -5 -25 25 -35 151 -4
64 -13 126 -19 137 -21 38 -90 38 -111 -1 -6 -11 -14 -57 -19 -102 -87 -812
-129 -1111 -169 -1210 -22 -56 -41 -31 -152 191 -82 165 -117 224 -152 260
-26 26 -47 51 -47 54 0 4 25 42 56 85 122 170 191 348 185 481 -2 40 -44 72
-96 72 -99 0 -159 -55 -232 -210 -25 -55 -51 -100 -58 -100 -14 0 -31 357 -19
404 3 15 46 105 93 199 110 218 161 367 168 491 4 75 1 97 -14 126 -34 65
-112 79 -199 35z m107 -67 c20 -38 5 -162 -35 -283 -42 -126 -96 -241 -111
-234 -20 8 0 225 32 359 22 92 69 180 94 180 5 0 14 -10 20 -22z m133 -1017
c-16 -110 -71 -241 -151 -364 -69 -104 -80 -78 -37 93 29 116 75 219 129 293
30 40 39 46 51 36 11 -9 13 -23 8 -58z m930 -668 c10 -259 -13 -436 -65 -491
-27 -30 -46 -28 -80 9 -43 46 -53 97 -40 201 24 183 134 476 170 453 4 -2 11
-80 15 -172z"/>
<path d="M1417 3568 c-37 -50 -57 -93 -82 -182 -71 -247 -77 -352 -73 -1301 3
-841 1 -903 -39 -1033 -13 -44 -20 -52 -37 -50 -29 4 -120 135 -194 277 -56
109 -88 185 -225 541 -152 397 -304 864 -333 1028 -21 120 -44 145 -95 103
-21 -17 -24 -29 -28 -106 -2 -47 2 -122 9 -166 28 -193 284 -957 440 -1313 47
-107 177 -341 222 -398 34 -44 118 -88 168 -88 48 0 120 38 146 77 12 18 24
54 27 80 30 227 32 309 29 1048 -2 502 0 804 8 890 19 226 71 441 136 562 13
25 21 49 18 54 -3 5 -20 9 -39 9 -27 0 -39 -7 -58 -32z"/>
<path d="M1608 2699 c-13 -7 -18 -23 -18 -53 0 -56 30 -96 71 -96 94 0 112 90
29 138 -43 24 -57 26 -82 11z"/>
</g>
</svg>
